<svg xmlns="http://www.w3.org/2000/svg" viewBox="0 0 32 32">
  <rect width="32" height="32" rx="7" fill="#0a0706"/>
  <defs>
    <linearGradient id="outer" x1="50%" y1="0%" x2="50%" y2="100%">
      <stop offset="0%" stop-color="#f57e44"/>
      <stop offset="100%" stop-color="#b83d10"/>
    </linearGradient>
    <linearGradient id="core" x1="50%" y1="0%" x2="50%" y2="100%">
      <stop offset="0%" stop-color="#ffd166"/>
      <stop offset="100%" stop-color="#f57e44"/>
    </linearGradient>
  </defs>
  <!-- Outer flame -->
  <path d="M16 3 C20 8 26 14 24 20 C22 25 19.5 29 16 29 C12.5 29 10 25 8 20 C6 14 12 8 16 3Z" fill="url(#outer)"/>
  <!-- Inner flame core -->
  <path d="M16 10 C18 13 21 17 20 21 C19 24 17.5 26.5 16 26.5 C14.5 26.5 13 24 12 21 C11 17 14 13 16 10Z" fill="url(#core)" opacity="0.85"/>
  <!-- Highlight sparkle -->
  <circle cx="19" cy="14" r="1.5" fill="rgba(255,255,255,0.35)"/>
</svg>
